<svg width="29" height="51" viewBox="0 0 29 51" fill="none" xmlns="http://www.w3.org/2000/svg">
<path d="M20.9286 0C17.424 0 14.0629 1.36171 11.5846 3.78554C9.10657 6.2094 7.71429 9.49681 7.71429 12.9247V20.1205H0.642857C0.287828 20.1205 0 20.402 0 20.7493V30.2507C0 30.598 0.287828 30.8795 0.642857 30.8795H7.71429V50.3712C7.71429 50.7186 8.00212 51 8.35714 51H18.0714C18.4266 51 18.7143 50.7186 18.7143 50.3712V30.8795H25.8483C26.1434 30.8795 26.4006 30.683 26.472 30.4033L28.9006 20.9019C29.002 20.5051 28.6951 20.1205 28.2769 20.1205H18.7143V12.9247C18.7143 12.3503 18.9477 11.7994 19.3629 11.3932C19.778 10.9871 20.3414 10.7589 20.9286 10.7589H28.3571C28.7123 10.7589 29 10.4774 29 10.1301V0.628767C29 0.28152 28.7123 0 28.3571 0H20.9286Z" fill="white"/>
</svg>
