<svg width="32" height="53" viewBox="0 0 32 53" fill="none" xmlns="http://www.w3.org/2000/svg">
<path d="M13.1454 36.8877C9.08554 36.4642 5.425 35.4644 2.29101 33.0132C1.90214 32.7083 1.50065 32.4143 1.14579 32.0737C-0.225955 30.7562 -0.364171 29.2474 0.721265 27.6925C1.64984 26.3618 3.20861 26.0059 4.82881 26.7699C5.14254 26.918 5.44146 27.1028 5.72776 27.3014C11.5685 31.3146 19.5922 31.4254 25.4548 27.4818C26.0357 27.0365 26.6565 26.6734 27.3762 26.488C28.7753 26.1287 30.0801 26.6427 30.831 27.8669C31.6888 29.2649 31.6779 30.6295 30.6209 31.715C28.9996 33.3791 27.0498 34.583 24.8833 35.4232C22.8348 36.2174 20.5909 36.6173 18.3702 36.8827C18.7053 37.2475 18.8632 37.4268 19.0728 37.6374C22.0883 40.6672 25.117 43.6844 28.1226 46.7235C29.1466 47.759 29.3605 49.043 28.7967 50.2475C28.1802 51.5638 26.8003 52.4299 25.4472 52.3372C24.5899 52.2779 23.9213 51.8512 23.3273 51.2528C21.0517 48.9629 18.7332 46.7153 16.5037 44.3821C15.8548 43.7036 15.5428 43.8319 14.9701 44.421C12.6808 46.7778 10.3542 49.0984 8.01382 51.4059C6.96293 52.4419 5.71241 52.6284 4.49369 52.0366C3.19819 51.4086 2.37383 50.0862 2.43745 48.7573C2.48133 47.8583 2.9234 47.1716 3.54044 46.5557C6.5247 43.5758 9.50074 40.5882 12.4779 37.6034C12.6748 37.4049 12.8585 37.1943 13.1454 36.8877Z" fill="white"/>
<path d="M15.62 26.5074C8.37737 26.4827 2.43846 20.4785 2.48069 13.2244C2.52238 5.89015 8.46512 -0.0202415 15.7791 5.21033e-05C23.1078 0.0197973 28.9902 6.0152 28.9535 13.4257C28.9162 20.665 22.9361 26.5326 15.62 26.5074ZM22.2023 13.2419C22.1897 9.64008 19.3211 6.77264 15.7264 6.76935C12.1015 6.76551 9.20721 9.68506 9.23519 13.3198C9.26206 16.9079 12.1553 19.7551 15.7599 19.7419C19.3535 19.7293 22.2143 16.8432 22.2023 13.2419Z" fill="white"/>
</svg>
