<svg width="46" height="53" viewBox="0 0 46 53" fill="none" xmlns="http://www.w3.org/2000/svg">
<path d="M45.7156 13.0355C42.7399 13.0355 39.9943 12.0497 37.7894 10.3866C35.2608 8.48021 33.4439 5.68368 32.8023 2.46045C32.6435 1.66406 32.5579 0.842216 32.5498 0H24.0492V23.2276L24.039 35.9505C24.039 39.3519 21.824 42.236 18.7535 43.2504C17.8624 43.5447 16.9001 43.6842 15.8979 43.6292C14.6188 43.5589 13.4202 43.173 12.3784 42.5497C10.1613 41.2238 8.65815 38.8183 8.61741 36.0666C8.55326 31.7659 12.0301 28.2595 16.3277 28.2595C17.176 28.2595 17.9908 28.398 18.7535 28.6496V22.3009V20.0187C17.949 19.8995 17.1302 19.8374 16.3023 19.8374C11.5983 19.8374 7.19879 21.7927 4.05397 25.3154C1.67703 27.9774 0.251269 31.3738 0.0312948 34.9351C-0.256912 39.6137 1.45502 44.061 4.775 47.3423C5.26281 47.824 5.77506 48.2711 6.31074 48.6835C9.15717 50.8741 12.637 52.0616 16.3023 52.0616C17.1302 52.0616 17.949 52.0005 18.7535 51.8813C22.1774 51.3741 25.3365 49.8068 27.8295 47.3423C30.8929 44.3146 32.5854 40.295 32.6038 36.0167L32.56 17.0174C34.0214 18.1448 35.6192 19.0777 37.3342 19.8017C40.0014 20.9271 42.8295 21.4974 45.7401 21.4964V15.3238V13.0335C45.7421 13.0355 45.7177 13.0355 45.7156 13.0355Z" fill="white"/>
</svg>
