<svg width="62" height="35" viewBox="0 0 62 35" fill="none" xmlns="http://www.w3.org/2000/svg">
<path d="M59.5069 34.9958H52.7199C50.152 34.9958 49.3797 33.02 44.7744 28.6442C40.7551 24.9623 39.0571 24.5024 38.0385 24.5024C36.6335 24.5024 36.2474 24.8693 36.2474 26.7125V32.5115C36.2474 34.0808 35.7125 35 31.4002 35C27.2152 34.7329 23.1567 33.5248 19.5593 31.4753C15.9618 29.4257 12.9284 26.5935 10.7086 23.2118C5.43881 16.9795 1.7721 9.66501 0 1.84977C0 0.88178 0.386102 0.00661789 2.32593 0.00661789H9.10838C10.8528 0.00661789 11.4808 0.744777 12.1647 2.44648C15.4582 11.6579 21.0777 19.667 23.3571 19.667C24.2316 19.667 24.6131 19.3001 24.6131 17.2271V7.7417C24.3247 3.41447 21.9057 3.04761 21.9057 1.48291C21.9368 1.0702 22.1358 0.685249 22.4606 0.40963C22.7854 0.13404 23.2104 -0.0105111 23.6455 0.00661789H34.3075C35.7637 0.00661789 36.2474 0.696159 36.2474 2.35366V15.1541C36.2474 16.5377 36.8753 16.9973 37.3126 16.9973C38.1872 16.9973 38.8616 16.5377 40.4621 15.017C43.8992 11.0344 46.7074 6.59725 48.7981 1.84536C49.012 1.27456 49.4163 0.785904 49.9497 0.453895C50.4831 0.121915 51.1161 -0.0351871 51.7521 0.00661789H58.5392C60.5722 0.00661789 61.0048 0.974605 60.5722 2.35366C58.1043 7.60658 55.0506 12.5929 51.4636 17.2271C50.7333 18.2879 50.4403 18.8405 51.4636 20.0825C52.1383 21.0503 54.5155 22.9379 56.1156 24.7322C58.441 26.9364 60.3723 29.4865 61.8326 32.2817C62.4142 34.0763 61.442 34.9958 59.5069 34.9958Z" fill="white"/>
</svg>
