<svg width="64" height="45" viewBox="0 0 64 45" fill="none" xmlns="http://www.w3.org/2000/svg">
<path d="M61.9142 6.92587C61.1854 4.21774 59.0502 2.08307 56.3426 1.35382C51.3956 0 31.6077 0 31.6077 0C31.6077 0 11.8203 0 6.8733 1.30222C4.21774 2.03098 2.03049 4.21822 1.30173 6.92587C0 11.8724 0 22.1309 0 22.1309C0 22.1309 0 32.4411 1.30173 37.336C2.03098 40.0437 4.16565 42.1788 6.87378 42.9081C11.8724 44.2619 31.6082 44.2619 31.6082 44.2619C31.6082 44.2619 51.3956 44.2619 56.3426 42.9597C59.0507 42.2309 61.1854 40.0958 61.9146 37.3881C63.2164 32.4411 63.2164 22.183 63.2164 22.183C63.2164 22.183 63.2685 11.8724 61.9142 6.92587Z" fill="white"/>
<path d="M25.3086 31.6069L41.7634 22.1296L25.3086 12.6523V31.6069Z" fill="#C4302B"/>
</svg>
