<svg width="22" height="20" viewBox="0 0 22 20" fill="none" xmlns="http://www.w3.org/2000/svg">
<path d="M1.66797 10.0007L0.97161 9.72211C0.900088 9.90092 0.900088 10.1004 0.97161 10.2792L1.66797 10.0007ZM20.3346 10.0007L21.031 10.2792C21.1025 10.1004 21.1025 9.90092 21.031 9.72211L20.3346 10.0007ZM11.0013 15.9173C7.94693 15.9173 5.80131 14.3981 4.3921 12.8323C3.68697 12.0488 3.17576 11.2628 2.84132 10.6726C2.67452 10.3782 2.55285 10.1346 2.47397 9.9673C2.43455 9.88369 2.4059 9.81929 2.38771 9.77732C2.37862 9.75633 2.37215 9.74097 2.36826 9.73163C2.36632 9.72696 2.36502 9.7238 2.36437 9.7222C2.36404 9.72139 2.36387 9.72098 2.36387 9.72097C2.36386 9.72096 2.3639 9.72105 2.36398 9.72124C2.36402 9.72133 2.3641 9.72155 2.36412 9.7216C2.36422 9.72184 2.36433 9.72211 1.66797 10.0007C0.97161 10.2792 0.971738 10.2795 0.971876 10.2799C0.971936 10.28 0.972085 10.2804 0.972204 10.2807C0.972444 10.2813 0.972725 10.282 0.973047 10.2828C0.973693 10.2844 0.974505 10.2864 0.975485 10.2888C0.977445 10.2936 0.980075 10.3 0.983381 10.3079C0.989993 10.3238 0.99931 10.3459 1.01138 10.3737C1.0355 10.4294 1.07066 10.5082 1.11718 10.6069C1.21016 10.8042 1.34892 11.0814 1.53628 11.4121C1.91017 12.0719 2.48229 12.9525 3.27715 13.8357C4.86793 15.6032 7.38896 17.4173 11.0013 17.4173V15.9173ZM1.66797 10.0007C2.36433 10.2792 2.36422 10.2795 2.36412 10.2797C2.3641 10.2797 2.36402 10.28 2.36398 10.2801C2.3639 10.2803 2.36386 10.2803 2.36387 10.2803C2.36387 10.2803 2.36404 10.2799 2.36437 10.2791C2.36502 10.2775 2.36632 10.2743 2.36826 10.2697C2.37215 10.2603 2.37862 10.245 2.38771 10.224C2.4059 10.182 2.43455 10.1176 2.47397 10.034C2.55285 9.86667 2.67452 9.6231 2.84132 9.32874C3.17576 8.73854 3.68697 7.95252 4.3921 7.16904C5.80131 5.60325 7.94693 4.08398 11.0013 4.08398V2.58398C7.38896 2.58398 4.86793 4.39806 3.27715 6.16559C2.48229 7.04878 1.91017 7.92943 1.53628 8.58923C1.34892 8.91987 1.21016 9.19713 1.11718 9.39438C1.07066 9.49306 1.0355 9.5719 1.01138 9.62758C0.99931 9.65542 0.989993 9.6775 0.983381 9.69338C0.980075 9.70133 0.977445 9.70773 0.975485 9.71253C0.974505 9.71493 0.973693 9.71694 0.973047 9.71854C0.972725 9.71934 0.972444 9.72003 0.972204 9.72063C0.972085 9.72093 0.971936 9.7213 0.971876 9.72145C0.971738 9.72179 0.97161 9.72211 1.66797 10.0007ZM11.0013 4.08398C14.0556 4.08398 16.2013 5.60325 17.6105 7.16904C18.3156 7.95252 18.8268 8.73855 19.1613 9.32874C19.3281 9.6231 19.4497 9.86667 19.5286 10.034C19.5681 10.1176 19.5967 10.182 19.6149 10.224C19.624 10.245 19.6305 10.2603 19.6343 10.2697C19.6363 10.2743 19.6376 10.2775 19.6382 10.2791C19.6386 10.2799 19.6387 10.2803 19.6387 10.2803C19.6387 10.2803 19.6387 10.2803 19.6386 10.2801C19.6386 10.28 19.6385 10.2798 19.6385 10.2797C19.6384 10.2795 19.6383 10.2792 20.3346 10.0007C21.031 9.72211 21.0309 9.72179 21.0307 9.72144C21.0307 9.72129 21.0305 9.72092 21.0304 9.72063C21.0302 9.72003 21.0299 9.71933 21.0296 9.71853C21.0289 9.71693 21.0281 9.71493 21.0271 9.71253C21.0252 9.70773 21.0225 9.70132 21.0192 9.69338C21.0126 9.67749 21.0033 9.65542 20.9912 9.62757C20.9671 9.57189 20.9319 9.49306 20.8854 9.39438C20.7924 9.19713 20.6537 8.91987 20.4663 8.58922C20.0924 7.92942 19.5203 7.04878 18.7254 6.16559C17.1346 4.39806 14.6136 2.58398 11.0013 2.58398V4.08398ZM20.3346 10.0007C19.6383 9.72211 19.6384 9.72184 19.6385 9.72159C19.6385 9.72155 19.6386 9.72133 19.6386 9.72123C19.6387 9.72104 19.6387 9.72095 19.6387 9.72096C19.6387 9.72098 19.6386 9.72139 19.6382 9.72219C19.6376 9.7238 19.6363 9.72696 19.6343 9.73163C19.6305 9.74097 19.624 9.75633 19.6149 9.77731C19.5967 9.81929 19.5681 9.88368 19.5286 9.96729C19.4497 10.1346 19.3281 10.3782 19.1613 10.6726C18.8268 11.2628 18.3156 12.0488 17.6105 12.8323C16.2013 14.3981 14.0556 15.9173 11.0013 15.9173V17.4173C14.6136 17.4173 17.1346 15.6032 18.7254 13.8357C19.5203 12.9525 20.0924 12.0719 20.4663 11.4121C20.6537 11.0814 20.7924 10.8042 20.8854 10.6069C20.9319 10.5082 20.9671 10.4294 20.9912 10.3737C21.0033 10.3459 21.0126 10.3238 21.0192 10.3079C21.0225 10.3 21.0252 10.2936 21.0271 10.2888C21.0281 10.2864 21.0289 10.2844 21.0296 10.2828C21.0299 10.282 21.0302 10.2813 21.0304 10.2807C21.0305 10.2804 21.0307 10.28 21.0307 10.2799C21.0309 10.2795 21.031 10.2792 20.3346 10.0007ZM11.0013 11.9173C9.94276 11.9173 9.08463 11.0592 9.08463 10.0007H7.58463C7.58463 11.8876 9.11433 13.4173 11.0013 13.4173V11.9173ZM12.918 10.0007C12.918 11.0592 12.0598 11.9173 11.0013 11.9173V13.4173C12.8883 13.4173 14.418 11.8876 14.418 10.0007H12.918ZM11.0013 8.08398C12.0598 8.08398 12.918 8.9421 12.918 10.0007H14.418C14.418 8.11368 12.8883 6.58398 11.0013 6.58398V8.08398ZM11.0013 6.58398C9.11433 6.58398 7.58463 8.11368 7.58463 10.0007H9.08463C9.08463 8.9421 9.94276 8.08398 11.0013 8.08398V6.58398Z" fill="#202020"/>
</svg>
