<svg width="14" height="18" viewBox="0 0 14 18" fill="none" xmlns="http://www.w3.org/2000/svg">
<path d="M9.58006 0.473694C9.58006 0.283794 9.46891 0.112254 9.29768 0.0378672C9.12636 -0.03652 8.92811 0.000626379 8.79393 0.132253L7.14303 1.75184C4.68489 4.16328 2.60783 6.94873 0.985776 10.009C0.947584 10.0779 0.925781 10.1574 0.925781 10.2422C0.925781 10.5037 1.13365 10.7159 1.39007 10.7159H5.39221V17.5263C5.39221 17.7139 5.5007 17.8838 5.66887 17.9596C5.83706 18.0354 6.0332 18.0028 6.16914 17.8764L6.90782 17.19C9.49361 14.7868 11.6881 11.9791 13.4087 8.87209L13.8657 8.04712C13.9469 7.90047 13.9457 7.72085 13.8624 7.57533C13.7792 7.42982 13.6266 7.34039 13.4615 7.34039H9.58006V0.473694Z" fill="#EB9139"/>
</svg>
