<svg width="27" height="20" viewBox="0 0 27 20" fill="none" xmlns="http://www.w3.org/2000/svg">
<path d="M11.0606 3.06065C11.6464 2.47487 11.6464 1.52511 11.0606 0.939335C10.4748 0.353555 9.5252 0.353555 8.93934 0.939335L0.93934 8.93939C0.64644 9.23219 0.5 9.61619 0.5 9.99999C0.5 10.2034 0.54048 10.3974 0.61382 10.5742C0.68702 10.751 0.79552 10.9168 0.93934 11.0606L8.93934 19.0606C9.5252 19.6464 10.4748 19.6464 11.0606 19.0606C11.6464 18.4748 11.6464 17.5252 11.0606 16.9394L5.62132 11.5H25C25.8284 11.5 26.5 10.8284 26.5 9.99999C26.5 9.17159 25.8284 8.49999 25 8.49999H5.62132L11.0606 3.06065Z" fill="#EDEDED"/>
</svg>