<svg width="27" height="20" viewBox="0 0 27 20" fill="none" xmlns="http://www.w3.org/2000/svg">
<path d="M15.9394 3.06065C15.3536 2.47487 15.3536 1.52511 15.9394 0.939335C16.5252 0.353555 17.4748 0.353555 18.0607 0.939335L26.0607 8.93939C26.3536 9.23219 26.5 9.61619 26.5 9.99999C26.5 10.2034 26.4595 10.3974 26.3862 10.5742C26.313 10.751 26.2045 10.9168 26.0607 11.0606L18.0607 19.0606C17.4748 19.6464 16.5252 19.6464 15.9394 19.0606C15.3536 18.4748 15.3536 17.5252 15.9394 16.9394L21.3787 11.5H2C1.1716 11.5 0.499996 10.8284 0.499996 9.99999C0.499996 9.17159 1.1716 8.49999 2 8.49999H21.3787L15.9394 3.06065Z" fill="#EDEDED"/>
</svg>