<svg width="29" height="27" viewBox="0 0 29 27" fill="none" xmlns="http://www.w3.org/2000/svg">
<g clip-path="url(#clip0_371_9205)">
<path d="M26.7236 2.87588H22.9185V2.18928C22.9185 1.72727 22.5666 1.32195 22.0892 1.27128C21.5247 1.21142 21.047 1.63488 21.047 2.16565V2.87593H8.69581V2.18928C8.69581 1.72727 8.34393 1.32195 7.86651 1.27128C7.30207 1.21142 6.82437 1.63488 6.82437 2.16565V2.87593H3.01922C1.81343 2.87588 0.835938 3.81608 0.835938 4.97592V8.57209V23.6359C0.835938 24.7957 1.81343 25.7359 3.01922 25.7359H26.7236C27.9294 25.7359 28.9069 24.7957 28.9069 23.6359V8.57204V4.97592C28.9069 3.81608 27.9294 2.87588 26.7236 2.87588ZM7.38585 23.9359H3.01922C2.84701 23.9359 2.70732 23.8016 2.70732 23.6359V17.5759H7.38579V23.9359H7.38585ZM7.38585 15.8359H2.70732V9.4759H7.38579V15.8359H7.38585ZM13.9357 23.9359H9.25723V17.5759H13.9357V23.9359ZM13.9357 15.8359H9.25723V9.4759H13.9357V15.8359ZM20.4856 23.9359H15.8071V17.5759H20.4856V23.9359ZM20.4856 15.8359H15.8071V9.4759H20.4856V15.8359ZM27.0355 23.6359C27.0355 23.8016 26.8958 23.9359 26.7236 23.9359H22.357V17.5759H27.0355V23.6359ZM27.0355 15.8359H22.357V9.4759H27.0355V15.8359ZM27.0355 7.67592H2.70732V4.97592C2.70732 4.81028 2.84696 4.67591 3.01922 4.67591H6.82437V5.36257C6.82437 5.82457 7.17625 6.22989 7.65367 6.28057C8.21811 6.34053 8.69581 5.91702 8.69581 5.38625V4.67591H21.047V5.36257C21.047 5.82457 21.3989 6.22989 21.8763 6.28057C22.4408 6.34053 22.9185 5.91702 22.9185 5.38625V4.67591H26.7236C26.8958 4.67591 27.0355 4.81023 27.0355 4.97592V7.67592Z"/>
</g>
<defs>
<clipPath id="clip0_371_9205">
<rect width="28.071" height="27" fill="white" transform="translate(0.835938)"/>
</clipPath>
</defs>
</svg>