<svg width="16" height="16" viewBox="0 0 16 16" fill="none" xmlns="http://www.w3.org/2000/svg">
<path fill-rule="evenodd" clip-rule="evenodd" d="M3.33203 10.834C3.60817 10.834 3.83203 11.0579 3.83203 11.334V12.6673C3.83203 12.7594 3.90665 12.834 3.9987 12.834H11.9987C12.0908 12.834 12.1654 12.7594 12.1654 12.6673V11.334C12.1654 11.0579 12.3892 10.834 12.6654 10.834C12.9415 10.834 13.1654 11.0579 13.1654 11.334V12.6673C13.1654 13.3117 12.643 13.834 11.9987 13.834H3.9987C3.35436 13.834 2.83203 13.3117 2.83203 12.6673V11.334C2.83203 11.0579 3.05589 10.834 3.33203 10.834Z" fill="#BABABA"/>
<path d="M7.15864 2.5C6.81578 2.5 6.52969 2.76208 6.49974 3.1037C6.39732 4.27217 6.37925 5.44639 6.44563 6.61723C6.28097 6.62633 6.11638 6.63687 5.95186 6.64887L4.95886 6.72127C4.57599 6.74913 4.36196 7.17607 4.56866 7.49953C5.27669 8.6076 6.189 9.57087 7.25698 10.3381L7.65478 10.6239C7.86111 10.7721 8.13904 10.7721 8.34538 10.6239L8.74318 10.3381C9.81118 9.57087 10.7234 8.6076 11.4315 7.49953C11.6382 7.17607 11.4242 6.74913 11.0413 6.72127L10.0483 6.64887C9.88378 6.63687 9.71918 6.62633 9.55451 6.61723C9.62091 5.44639 9.60284 4.27217 9.50044 3.10369C9.47044 2.76208 9.18438 2.5 8.84151 2.5H7.15864Z" fill="#BABABA"/>
</svg>
