<svg width="16" height="18" viewBox="0 0 16 18" fill="none" xmlns="http://www.w3.org/2000/svg">
<path fill-rule="evenodd" clip-rule="evenodd" d="M0.916992 7.59846C0.916992 3.76523 4.12023 0.666992 7.99486 0.666992C11.8804 0.666992 15.0837 3.76523 15.0837 7.59846C15.0837 9.53007 14.3812 11.3233 13.2249 12.8433C11.9493 14.5199 10.3771 15.9807 8.60745 17.1273C8.20242 17.3923 7.83689 17.4123 7.39237 17.1273C5.61261 15.9807 4.0404 14.5199 2.77574 12.8433C1.61865 11.3233 0.916992 9.53007 0.916992 7.59846ZM5.66218 7.81428C5.66218 9.09841 6.71004 10.1084 7.99486 10.1084C9.28053 10.1084 10.3385 9.09841 10.3385 7.81428C10.3385 6.54015 9.28053 5.48102 7.99486 5.48102C6.71004 5.48102 5.66218 6.54015 5.66218 7.81428Z" fill="#EB9139"/>
</svg>