<svg width="83" height="65" viewBox="0 0 83 65" fill="none" xmlns="http://www.w3.org/2000/svg">
<path d="M41 0C23.3551 0 9 13.8428 9 30.8571V43.7142C9 44.4249 9.65059 45 10.4546 45C11.2586 45 11.9092 44.4249 11.9092 43.7142V30.8571C11.9092 15.2603 24.9589 2.57138 41 2.57138C57.0411 2.57138 70.0908 15.2603 70.0908 30.8571V43.7142C70.0908 44.4249 70.7414 45 71.5454 45C72.3494 45 73 44.4249 73 43.7142V30.8571C72.9999 13.8428 58.6449 0 41 0Z" fill="white"/>
<path d="M10.5 26H6C2.69098 26 0 28.6012 0 31.8V49.2C0 52.3987 2.69084 55 6 55H10.5C11.3291 55 12 54.3514 12 53.55V27.45C12 26.6486 11.3291 26 10.5 26ZM9.00007 52.0999H6C4.34626 52.0999 3.00007 50.7986 3.00007 49.2V31.8C3.00007 30.2014 4.34626 28.9001 6 28.9001H8.99993L9.00007 52.0999Z" fill="white"/>
<path d="M76.5 26H71.625C70.7268 26 70 26.6486 70 27.45V53.55C70 54.3514 70.7268 55 71.625 55H76.5C80.0848 55 83 52.3988 83 49.2V31.8C83 28.6012 80.0848 26 76.5 26ZM79.7499 49.2C79.7499 50.7986 78.2915 52.0999 76.5 52.0999H73.2501V28.8999H76.5C78.2915 28.8999 79.7499 30.2013 79.7499 31.7999V49.2Z" fill="white"/>
<ellipse cx="41.5033" cy="39" rx="25.7552" ry="26" fill="white"/>
</svg>
