<svg width="36" height="37" viewBox="0 0 36 37" fill="none" xmlns="http://www.w3.org/2000/svg">
<rect x="0.5" y="1.18945" width="34.5577" height="35.3111" rx="5.5" stroke="#F6983C"/>
<g clip-path="url(#clip0_371_1379)">
<path d="M26.717 14.2848L25.4297 13.5675V11.0335C25.4297 9.5204 24.2239 8.28906 22.7422 8.28906H11.9922C10.5105 8.28906 9.30469 9.5204 9.30469 11.0335V13.5675L8.01827 14.2848C7.15379 14.765 6.61719 15.6881 6.61719 16.6944V26.5854C6.61719 28.0985 7.82298 29.3298 9.30469 29.3298H25.4297C26.9114 29.3298 28.1172 28.0985 28.1172 26.5854V16.6944C28.1172 15.6881 27.5806 14.765 26.717 14.2848ZM8.40885 17.837V16.6944C8.40885 16.3586 8.58802 16.0513 8.87558 15.8912L9.30469 15.6524V18.3154L8.40885 17.837ZM16.8449 22.336L11.0964 19.2705V11.0335C11.0964 10.5294 11.4986 10.1187 11.9922 10.1187H22.7422C23.2358 10.1187 23.638 10.5294 23.638 11.0335V19.2705L17.8921 22.3351C17.5688 22.5062 17.1656 22.5062 16.8449 22.336ZM26.3255 17.837L25.4297 18.3145V15.6515L25.8588 15.8903C26.1464 16.0513 26.3255 16.3586 26.3255 16.6944V17.837Z" fill="#EB9139"/>
<path d="M15.8008 19.5178C14.6899 19.5178 13.7852 18.5947 13.7852 17.4594C13.7852 16.7386 14.1569 16.0689 14.7553 15.714C15.0761 15.5237 15.4872 15.6353 15.6736 15.9619C15.8599 16.2894 15.7515 16.7093 15.4308 16.8996C15.2418 17.0121 15.1289 17.2216 15.1289 17.4594C15.1289 17.8382 15.4308 18.1456 15.8008 18.1456C16.1708 18.1456 16.4727 17.8373 16.4727 17.4594C16.4727 17.3616 16.4538 17.2774 16.4162 17.2042C16.2433 16.8694 16.3678 16.4541 16.6957 16.2766C17.0227 16.0982 17.4294 16.2272 17.6041 16.562C17.7447 16.8346 17.8164 17.1365 17.8164 17.4594C17.8164 18.5947 16.9116 19.5178 15.8008 19.5178V19.5178Z" fill="#EB9139"/>
<path d="M22.0703 19.0835C22.0076 19.0835 21.9431 19.0744 21.8813 19.0561L12.475 16.244C12.1893 16.158 11.9922 15.8899 11.9922 15.5853V14.2131C11.9922 13.9066 12.1911 13.6376 12.4795 13.5535L21.8858 10.809C22.0873 10.7514 22.3077 10.7907 22.4743 10.9216C22.6436 11.0506 22.7422 11.2536 22.7422 11.4686V18.3974C22.7422 18.6133 22.6427 18.8164 22.4725 18.9463C22.3552 19.0369 22.2136 19.0835 22.0703 19.0835V19.0835Z" fill="#EB9139"/>
<path d="M22.0703 19.4724C21.6994 19.4724 21.3984 19.165 21.3984 18.7863V11.0103C21.3984 10.6316 21.6994 10.3242 22.0703 10.3242C22.4412 10.3242 22.7422 10.6316 22.7422 11.0103V18.7863C22.7422 19.165 22.4412 19.4724 22.0703 19.4724Z" fill="#EB9139"/>
<path d="M12.6641 16.7276C12.2932 16.7276 11.9922 16.4202 11.9922 16.0415V13.7545C11.9922 13.3757 12.2932 13.0684 12.6641 13.0684C13.0349 13.0684 13.3359 13.3757 13.3359 13.7545V16.0415C13.3359 16.4202 13.0349 16.7276 12.6641 16.7276Z" fill="#EB9139"/>
</g>
<defs>
<clipPath id="clip0_371_1379">
<rect width="21.5" height="21.9556" fill="white" transform="translate(6.61719 8.28906)"/>
</clipPath>
</defs>
</svg>