<svg width="10" height="12" viewBox="0 0 10 12" fill="none" xmlns="http://www.w3.org/2000/svg">
<path d="M8.23529 0C7.26065 0 6.47059 0.848305 6.47059 1.89474C6.47059 2.06177 6.49071 2.22376 6.52853 2.37806C6.48682 2.38731 6.44571 2.40323 6.40641 2.42625L4.78488 3.37587L2.72229 4.64135C2.70121 4.65429 2.6815 4.66881 2.66322 4.68469C2.40004 4.5172 2.09283 4.42105 1.76471 4.42105C0.790088 4.42105 0 5.26933 0 6.31579C0 7.36225 0.790088 8.21053 1.76471 8.21053C2.27886 8.21053 2.74167 7.97444 3.06421 7.59771L4.78571 8.62459L6.52365 9.64238C6.489 9.79055 6.47059 9.9456 6.47059 10.1053C6.47059 11.1517 7.26065 12 8.23529 12C9.20994 12 10 11.1517 10 10.1053C10 9.0588 9.20994 8.21053 8.23529 8.21053C7.72682 8.21053 7.26853 8.44143 6.94653 8.8109L5.21276 7.79558L3.48018 6.76206C3.51236 6.61895 3.52941 6.46952 3.52941 6.31579C3.52941 5.97493 3.44558 5.65509 3.29885 5.37878L5.21512 4.20307L6.82888 3.25795C6.86835 3.23485 6.90318 3.20623 6.93306 3.17347C7.25571 3.55205 7.71971 3.78947 8.23529 3.78947C9.20994 3.78947 10 2.94117 10 1.89474C10 0.848305 9.20994 0 8.23529 0Z" fill="#BABABA"/>
</svg>
