<svg width="26" height="25" viewBox="0 0 26 25" fill="none" xmlns="http://www.w3.org/2000/svg">
<path fill-rule="evenodd" clip-rule="evenodd" d="M21.2614 22.9162L21.2623 22.9137L21.2842 22.8546L25.0608 2.29113V2.22434C25.0608 1.71199 24.8855 1.2647 24.504 0.996408C24.1702 0.761573 23.7865 0.744857 23.5173 0.766918C23.2326 0.790244 22.9642 0.866981 22.7785 0.930851C22.6829 0.963711 22.6029 0.995361 22.5456 1.01931C22.5169 1.03134 22.4936 1.04154 22.4767 1.04913L22.4601 1.05669L1.40375 9.97753L1.39795 9.9797C1.38658 9.98419 1.37154 9.99031 1.35337 9.99793C1.31716 10.0132 1.26787 10.0349 1.20997 10.0633C1.09627 10.119 0.939179 10.2048 0.77987 10.3226C0.509295 10.5228 -0.00593601 10.9965 0.0810609 11.7476C0.153122 12.3697 0.550212 12.7648 0.817915 12.9693C0.961407 13.0791 1.0987 13.1581 1.19924 13.2098C1.25017 13.2361 1.29344 13.2561 1.32567 13.2702C1.34182 13.2773 1.35532 13.283 1.36578 13.2873L1.37916 13.2926L1.38771 13.2962L5.07166 14.6356C5.05923 14.8852 5.08215 15.1397 5.14344 15.3909L6.98877 22.9509C7.20756 23.8472 7.95843 24.4716 8.81678 24.4709C9.58616 24.4704 10.2685 23.9677 10.5584 23.2177L13.4394 19.8908L18.3874 23.9877L18.4578 24.0209C18.9073 24.2328 19.3274 24.2998 19.7114 24.2432C20.0949 24.1867 20.3995 24.013 20.6285 23.8152C20.8538 23.6206 21.008 23.4009 21.1051 23.2355C21.1545 23.1515 21.1913 23.0776 21.2167 23.022C21.2296 22.9941 21.2396 22.9706 21.2472 22.9521L21.2568 22.9284L21.2602 22.9197L21.2614 22.9162ZM6.97002 14.8708C6.92809 14.699 6.99393 14.5176 7.13282 14.4223L19.6283 5.85243C19.6283 5.85243 20.3632 5.37054 20.3369 5.85243C20.3369 5.85243 20.4682 5.93752 20.0742 6.3343C19.7007 6.71116 11.1685 15.6077 10.3051 16.5079C10.2553 16.5599 10.2255 16.6195 10.208 16.6918L8.81536 22.4308L6.97002 14.8708Z" fill="#38A6DB"/>
</svg>
