<svg width="20" height="20" viewBox="0 0 20 20" fill="none" xmlns="http://www.w3.org/2000/svg">
<path d="M1.20226 11.7832C1.33584 11.9167 1.48956 11.9836 1.66322 11.9836C1.83688 11.9836 1.9906 11.9167 2.12418 11.7832L10.0001 3.90717L17.8763 11.7832C18.0098 11.9167 18.1636 11.9836 18.337 11.9836C18.5109 11.9836 18.6646 11.9167 18.7982 11.7832L19.8001 10.7811C19.9336 10.6476 19.9999 10.4938 19.9999 10.3204C19.9999 10.1467 19.9332 9.99297 19.8001 9.85946L10.4607 0.520573C10.3273 0.386785 10.1738 0.320312 10.0001 0.320312C9.82645 0.320312 9.67266 0.386996 9.53915 0.520573L0.200471 9.85939C0.0666833 9.99297 0 10.1465 0 10.3206C0 10.4938 0.0668939 10.6475 0.200471 10.7811L1.20226 11.7832Z" />
<path d="M10.4607 8.2161C10.3273 8.08231 10.1738 8.01562 10.0001 8.01562C9.82645 8.01562 9.67266 8.08252 9.53915 8.2161L0.200471 17.5549C0.0666833 17.6885 0 17.8421 0 18.0161C0 18.1896 0.0668939 18.3433 0.200471 18.4768L1.20226 19.4789C1.33584 19.6125 1.48956 19.6788 1.66322 19.6788C1.83688 19.6788 1.9906 19.6121 2.12418 19.4789L10.0001 11.6026L17.8763 19.4789C18.0098 19.6125 18.1636 19.6791 18.337 19.6791C18.5109 19.6791 18.6646 19.6126 18.7982 19.4789L19.8001 18.4768C19.9336 18.3433 19.9999 18.1895 19.9999 18.0161C19.9999 17.8421 19.9332 17.6885 19.8001 17.5549L10.4607 8.2161Z" />
</svg>
