<svg width="22" height="15" viewBox="0 0 22 15" fill="none" xmlns="http://www.w3.org/2000/svg">
<path fill-rule="evenodd" clip-rule="evenodd" d="M5.36895 0.195728C8.87833 -0.0652425 12.4037 -0.0652425 15.9131 0.195728L18.2704 0.371028C19.5835 0.468668 20.6576 1.40407 20.8747 2.63884C21.4178 5.72831 21.4178 8.88211 20.8747 11.9716C20.6576 13.2063 19.5835 14.1417 18.2704 14.2394L15.9131 14.4147C12.4037 14.6756 8.87833 14.6756 5.36895 14.4147L3.01159 14.2394C1.69854 14.1417 0.624365 13.2063 0.407314 11.9716C-0.135771 8.88211 -0.135771 5.72831 0.407314 2.63884C0.624365 1.40407 1.69854 0.468668 3.01159 0.371028L5.36895 0.195728ZM8.53683 9.77531V4.83507C8.53683 4.60188 8.80448 4.45784 9.01479 4.57782L13.3461 7.04801C13.5504 7.16451 13.5504 7.44591 13.3461 7.56241L9.01479 10.0326C8.80448 10.1526 8.53683 10.0085 8.53683 9.77531Z" fill="#C4302B"/>
</svg>